<svg xmlns="http://www.w3.org/2000/svg" viewBox="0 0 141.73 46.02">
  <defs>
    <style>.cls-1{fill:#1434cb;}</style>
  </defs>
  <g id="Layer_2" data-name="Layer 2">
    <g id="Layer_1-2" data-name="Layer 1">
      <path class="cls-1" d="M48.85,15.92H39.63L33.56,34.8H42l1.14-3.77h6.62l.79,3.77h8.35L51.44,15.92ZM44.73,25.36l2.33-7.51h0L48.3,25.36Z"/>
      <polygon class="cls-1" points="70.23 15.92 62.38 15.92 56.87 30.03 54.63 15.92 46 15.92 50.72 34.8 59.5 34.8 70.23 15.92"/>
      <path class="cls-1" d="M80.55,15.26c-2.71,0-5.14.7-6.78,1.52l-.54,6.46,1.37-.58a10,10,0,0,1,4.39-1c1.55,0,2.46.54,2.46,1.37v.41H79c-5.09,0-8.84,2.21-8.84,6.95,0,3.56,2.41,6.08,6.83,6.08A8.77,8.77,0,0,0,83.6,35l.25,2.16h8.89l-.37-1.77V22.3C92.37,17.26,89.18,15.26,80.55,15.26Zm1.87,14.81a4.33,4.33,0,0,1-2.58.75c-1.08,0-1.73-.5-1.73-1.36,0-1.08.91-1.65,2.71-1.65h1.6Z"/>
      <path class="cls-1" d="M110.48,15.3a7.19,7.19,0,0,0-6.17,3.06l-.21-2.44H96.25l.21.79c.33,1.2.58,3.27.58,5.17V34.8h8.51V23.79c0-.79.08-1.4.25-1.94a3,3,0,0,1,2.83-2.16,4.92,4.92,0,0,1,2,.42l.5-7.18A8.62,8.62,0,0,0,110.48,15.3Z"/>
      <path class="cls-1" d="M25.52,15.92l-5.8,13L18,17.46c-.41-1.23-1.15-1.54-2.62-1.54H4.25L4,16.75a26,26,0,0,1,8.8,4.19L6.87,34.8h8.51l13-18.88Z"/>
    </g>
  </g>
</svg>
